# xmcd
#
# Track frame offsets: 
#        150
#        16712
#        38787
#
# Disc length: 757 seconds
#
# Revision: 3
# Processed by: cddbd v1.5.2PL0 Copyright (c) Steve Scherf et al.
# Submitted via: ExactAudioCopy v0.99pb5
#
DISCID=1502f303
DTITLE=Orcrist - Primitive Damnation
DYEAR=2002
DGENRE=Black Metal
TTITLE0=My Father is the Night-Wolf
TTITLE1=Samankallingen
TTITLE2=Primitive Damnation
EXTD=YEAR: 1993
EXTT0=
EXTT1=
EXTT2=
PLAYORDER=
